HIERARCHY
ROOT Hips
{
    OFFSET 0.000000 0.000000 0.000000
    CHANNELS 6 Xposition Yposition Zposition Zrotation Xrotation Yrotation
    JOINT Spine
    {
        OFFSET -0.000000 14.590730 0.000000
        CHANNELS 3 Zrotation Xrotation Yrotation
        JOINT Spine1
        {
            OFFSET -0.000000 36.763706 0.000000
            CHANNELS 3 Zrotation Xrotation Yrotation
            JOINT Neck
            {
                OFFSET -0.000000 36.612724 3.328429
                CHANNELS 3 Zrotation Xrotation Yrotation
                JOINT Head
                {
                    OFFSET -0.000000 24.911001 -3.558714
                    CHANNELS 3 Zrotation Xrotation Yrotation
                    End Site
                    {
                        OFFSET -0.000000 35.587143 0.000000
                    }
                }
            }
            JOINT LeftShoulder
            {
                OFFSET 7.070989 33.528889 -0.326312
                CHANNELS 3 Zrotation Xrotation Yrotation
                JOINT LeftArm
                {
                    OFFSET 20.537132 0.000000 0.000000
                    CHANNELS 3 Zrotation Xrotation Yrotation
                    JOINT LeftForeArm
                    {
                        OFFSET 58.337479 0.000000 0.000000
                        CHANNELS 3 Zrotation Xrotation Yrotation
                        JOINT LeftHand
                        {
                            OFFSET 49.531006 0.000000 0.000000
                            CHANNELS 3 Zrotation Xrotation Yrotation
                            End Site
                            {
                                OFFSET 26.690357 0.000000 0.000000
                            }
                        }
                    }
                }
            }
            JOINT RightShoulder
            {
                OFFSET -7.137656 33.528889 -0.326312
                CHANNELS 3 Zrotation Xrotation Yrotation
                JOINT RightArm
                {
                    OFFSET -20.537132 0.000000 0.000000
                    CHANNELS 3 Zrotation Xrotation Yrotation
                    JOINT RightForeArm
                    {
                        OFFSET -58.337479 0.000000 0.000000
                        CHANNELS 3 Zrotation Xrotation Yrotation
                        JOINT RightHand
                        {
                            OFFSET -49.531006 0.000000 0.000000
                            CHANNELS 3 Zrotation Xrotation Yrotation
                            End Site
                            {
                                OFFSET -26.690357 0.000000 0.000000
                            }
                        }
                    }
                }
            }
        }
    }
    JOINT LeftUpLeg
    {
        OFFSET 17.793571 0.000000 0.000000
        CHANNELS 3 Zrotation Xrotation Yrotation
        JOINT LeftLeg
        {
            OFFSET -0.000000 -82.654472 0.000000
            CHANNELS 3 Zrotation Xrotation Yrotation
            JOINT LeftFoot
            {
                OFFSET -0.000000 -60.126030 0.000000
                CHANNELS 3 Zrotation Xrotation Yrotation
                JOINT LeftToeBase
                {
                    OFFSET -0.000000 -11.565822 26.690357
                    CHANNELS 3 Zrotation Xrotation Yrotation
                    End Site
                    {
                        OFFSET -0.000000 0.000000 7.117429
                    }
                }
            }
        }
    }
    JOINT RightUpLeg
    {
        OFFSET -17.793571 0.000000 0.000000
        CHANNELS 3 Zrotation Xrotation Yrotation
        JOINT RightLeg
        {
            OFFSET -0.000000 -82.654472 0.000000
            CHANNELS 3 Zrotation Xrotation Yrotation
            JOINT RightFoot
            {
                OFFSET -0.000000 -60.126030 0.000000
                CHANNELS 3 Zrotation Xrotation Yrotation
                JOINT RightToeBase
                {
                    OFFSET -0.000000 -11.565822 26.690357
                    CHANNELS 3 Zrotation Xrotation Yrotation
                    End Site
                    {
                        OFFSET -0.000000 0.000000 7.117429
                    }
                }
            }
        }
    }
}
MOTION
Frames:    4
Frame Time:    0.008333
-8.824490    138.918381    -76.738098    -7.262923    23.468283    2.327931    -4.665982    -4.430838    -8.349947    9.475382    5.968197    -3.196568    22.132425    -0.865752    10.132525    -13.411844    21.240170    7.682020    22.619589    -1.542711    -24.960077    -13.203642    3.060286    -85.285492    -19.299709    -43.111332    -99.061829    -91.311157    -21.581221    -42.963108    12.245949    11.204322    7.125937    14.969233    22.534317    50.443882    44.856266    -9.042651    68.901360    57.920712    -20.803516    36.515587    12.427225    3.312681    15.036916    -14.030938    36.601646    14.270425    -6.048784    -22.776718    31.012600    0.000000    0.000000    0.000000    -17.836264    -58.406887    -59.304108    17.539631    42.859913    -23.112011    -16.287691    -12.836226    -20.210115    0.000000    0.000000    0.000000    
-9.417586    139.039093    -78.635796    -7.664326    23.246376    4.761392    -4.705931    -4.476700    -8.518550    9.207239    5.839514    -3.227614    21.038092    -1.393431    9.148425    -11.855555    20.837666    6.612724    22.196560    -1.362280    -24.466473    -13.701367    4.585156    -88.436554    -19.976355    -43.532326    -102.204208    -92.371361    -22.579838    -43.473564    12.004345    11.363849    7.142256    15.984398    23.721991    53.106922    44.093933    -11.633300    71.042366    58.237221    -22.856627    38.104946    13.236389    3.523829    16.907139    -12.753289    35.370811    13.624706    -9.217756    -24.504286    28.940577    0.000000    0.000000    0.000000    -20.014141    -58.191116    -61.705601    17.025642    42.100594    -22.911749    -15.973045    -11.910133    -20.498114    0.000000    0.000000    0.000000    
-10.040893    139.153748    -80.570618    -8.036417    22.942932    7.104347    -4.663170    -4.352347    -8.563951    8.844921    5.413563    -3.194972    19.704889    -1.226172    7.976456    -10.154639    19.817482    5.470274    21.486731    -0.919106    -23.917917    -14.116814    6.143056    -91.200546    -20.807606    -43.436905    -105.666336    -93.484673    -23.498289    -43.889809    11.711359    11.422995    7.224924    16.967892    25.074226    55.685905    42.696369    -14.048982    73.875305    57.244873    -25.400852    39.283817    13.992531    3.367323    18.803251    -10.998806    34.424473    13.360645    -12.509341    -24.970684    26.327713    0.000000    0.000000    0.000000    -21.992811    -57.919685    -63.774670    16.543293    41.241730    -22.937464    -15.737034    -10.879033    -20.719744    0.000000    0.000000    0.000000    
-10.590729    139.243607    -82.499283    -8.281369    22.672215    9.317844    -4.433789    -4.454626    -8.513963    8.098321    5.116211    -3.125108    17.997757    -0.849353    6.701417    -8.024650    18.645958    4.322731    20.394789    -0.380268    -23.296297    -14.264721    7.767425    -93.373886    -21.696182    -42.837902    -109.422340    -94.617447    -24.486650    -44.142975    11.325390    11.370349    7.401201    17.807562    26.455639    58.224976    40.643894    -16.475002    77.148361    56.787205    -27.795027    39.671673    14.542451    2.795532    20.384090    -9.251149    34.213543    13.142702    -15.805851    -25.028683    24.694143    0.000000    0.000000    0.000000    -24.004234    -57.642887    -65.822731    15.968195    40.399067    -22.747881    -15.569358    -9.861513    -20.978739    0.000000    0.000000    0.000000    
